<?xml version="1.0" encoding="UTF-8" standalone="no"?>
<!DOCTYPE svg PUBLIC "-//W3C//DTD SVG 1.1//EN"
 "http://www.w3.org/Graphics/SVG/1.1/DTD/svg11.dtd">
<!-- Generated by graphviz version 2.38.0 (20140413.2041)
 -->
<!-- Title: PROV Pages: 1 -->
<svg width="400pt" height="459pt"
 viewBox="0.00 0.00 400.00 459.00" xmlns="http://www.w3.org/2000/svg" xmlns:xlink="http://www.w3.org/1999/xlink">
<g id="graph0" class="graph" transform="scale(1 1) rotate(0) translate(4 455)">
<title>PROV</title>
<polygon fill="white" stroke="none" points="-4,4 -4,-455 396,-455 396,4 -4,4"/>
<g id="clust1" class="cluster"><title>clusterhttp://example.org/bundle1</title>
<g id="a_clust1"><a xlink:href="http://example.org/bundle1" xlink:title="bundle1">
<polygon fill="none" stroke="black" points="8,-8 8,-443 384,-443 384,-8 8,-8"/>
<text text-anchor="middle" x="196" y="-15.8" font-family="Times New Roman,serif" font-size="14.00">bundle1</text>
</a>
</g>
</g>
<!-- http://example.org/atFloor_1 -->
<g id="node1" class="node"><title>http://example.org/atFloor_1</title>
<g id="a_node1"><a xlink:href="http://example.org/atFloor_1" xlink:title="atFloor_1">
<polygon fill="#9fb1fc" stroke="#0000ff" points="280.5,-219 209.5,-219 209.5,-183 280.5,-183 280.5,-219"/>
<text text-anchor="middle" x="245" y="-197.3" font-family="Times New Roman,serif" font-size="14.00">atFloor_1</text>
</a>
</g>
</g>
<!-- http://example.org/Dispatcher@215be6bb_1 -->
<g id="node7" class="node"><title>http://example.org/Dispatcher@215be6bb_1</title>
<g id="a_node7"><a xlink:href="http://example.org/Dispatcher@215be6bb_1" xlink:title="Dispatcher@215be6bb_1">
<ellipse fill="#fffc87" stroke="#808080" cx="139" cy="-273" rx="103.182" ry="18"/>
<text text-anchor="middle" x="139" y="-269.3" font-family="Times New Roman,serif" font-size="14.00">Dispatcher@215be6bb_1</text>
</a>
</g>
</g>
<!-- http://example.org/atFloor_1&#45;&gt;http://example.org/Dispatcher@215be6bb_1 -->
<g id="edge11" class="edge"><title>http://example.org/atFloor_1&#45;&gt;http://example.org/Dispatcher@215be6bb_1</title>
<path fill="none" stroke="black" d="M213.172,-219.124C198.413,-228.241 181.103,-239.57 166.864,-249.401"/>
<polygon fill="black" stroke="black" points="164.629,-246.692 158.444,-255.294 168.644,-252.427 164.629,-246.692"/>
<text text-anchor="middle" x="213.664" y="-232.216" font-family="Times New Roman,serif" font-size="8.00">use</text>
</g>
<!-- &#45;attrs0 -->
<g id="node2" class="node"><title>&#45;attrs0</title>
<polygon fill="none" stroke="gray" points="323.5,-147 240.5,-147 240.5,-111 329.5,-111 329.5,-141 323.5,-147"/>
<polyline fill="none" stroke="gray" points="323.5,-147 323.5,-141 "/>
<polyline fill="none" stroke="gray" points="329.5,-141 323.5,-141 "/>
<text text-anchor="start" x="251" y="-126" font-family="Times New Roman,serif" font-size="10.00">type:</text>
<text text-anchor="start" x="274" y="-126" font-family="Times New Roman,serif" font-size="10.00">u2p:atFloor</text>
</g>
<!-- &#45;attrs0&#45;&gt;http://example.org/atFloor_1 -->
<g id="edge1" class="edge"><title>&#45;attrs0&#45;&gt;http://example.org/atFloor_1</title>
<path fill="none" stroke="gray" stroke-dasharray="5,2" d="M275.112,-147.303C268.912,-158.154 260.952,-172.083 254.774,-182.896"/>
</g>
<!-- http://example.org/Dispatcher@215be6bb_0 -->
<g id="node3" class="node"><title>http://example.org/Dispatcher@215be6bb_0</title>
<g id="a_node3"><a xlink:href="http://example.org/Dispatcher@215be6bb_0" xlink:title="Dispatcher@215be6bb_0">
<ellipse fill="#fffc87" stroke="#808080" cx="241" cy="-345" rx="103.182" ry="18"/>
<text text-anchor="middle" x="241" y="-341.3" font-family="Times New Roman,serif" font-size="14.00">Dispatcher@215be6bb_0</text>
</a>
</g>
</g>
<!-- http://example.org/Dispatcher@215be6bb -->
<g id="node9" class="node"><title>http://example.org/Dispatcher@215be6bb</title>
<g id="a_node9"><a xlink:href="http://example.org/Dispatcher@215be6bb" xlink:title="Dispatcher@215be6bb">
<polygon fill="#fdb266" stroke="black" points="302.478,-422.562 186,-435 69.5219,-422.562 69.6306,-402.438 302.369,-402.438 302.478,-422.562"/>
<text text-anchor="middle" x="186" y="-413.3" font-family="Times New Roman,serif" font-size="14.00">Dispatcher@215be6bb</text>
</a>
</g>
</g>
<!-- http://example.org/Dispatcher@215be6bb_0&#45;&gt;http://example.org/Dispatcher@215be6bb -->
<g id="edge6" class="edge"><title>http://example.org/Dispatcher@215be6bb_0&#45;&gt;http://example.org/Dispatcher@215be6bb</title>
<path fill="none" stroke="black" d="M227.686,-362.945C220.334,-372.302 211.12,-384.03 203.225,-394.078"/>
<polygon fill="black" stroke="black" points="200.399,-392.009 196.973,-402.034 205.904,-396.333 200.399,-392.009"/>
<text text-anchor="middle" x="233.267" y="-374.968" font-family="Times New Roman,serif" font-size="8.00">att</text>
</g>
<!-- &#45;attrs1 -->
<g id="node4" class="node"><title>&#45;attrs1</title>
<polygon fill="none" stroke="gray" points="370,-291 260,-291 260,-255 376,-255 376,-285 370,-291"/>
<polyline fill="none" stroke="gray" points="370,-291 370,-285 "/>
<polyline fill="none" stroke="gray" points="376,-285 370,-285 "/>
<text text-anchor="start" x="270" y="-270" font-family="Times New Roman,serif" font-size="10.00">type:</text>
<text text-anchor="start" x="293" y="-270" font-family="Times New Roman,serif" font-size="10.00">u2p:StateMachine</text>
</g>
<!-- &#45;attrs1&#45;&gt;http://example.org/Dispatcher@215be6bb_0 -->
<g id="edge2" class="edge"><title>&#45;attrs1&#45;&gt;http://example.org/Dispatcher@215be6bb_0</title>
<path fill="none" stroke="gray" stroke-dasharray="5,2" d="M298.966,-291.303C286.942,-302.235 271.48,-316.291 259.549,-327.137"/>
</g>
<!-- http://example.org/Dispatcher@215be6bb_2 -->
<g id="node5" class="node"><title>http://example.org/Dispatcher@215be6bb_2</title>
<g id="a_node5"><a xlink:href="http://example.org/Dispatcher@215be6bb_2" xlink:title="Dispatcher@215be6bb_2">
<ellipse fill="#fffc87" stroke="#808080" cx="119" cy="-129" rx="103.182" ry="18"/>
<text text-anchor="middle" x="119" y="-125.3" font-family="Times New Roman,serif" font-size="14.00">Dispatcher@215be6bb_2</text>
</a>
</g>
</g>
<!-- http://example.org/Dispatcher@215be6bb_2&#45;&gt;http://example.org/atFloor_1 -->
<g id="edge8" class="edge"><title>http://example.org/Dispatcher@215be6bb_2&#45;&gt;http://example.org/atFloor_1</title>
<path fill="none" stroke="black" d="M148.541,-146.412C165.544,-155.858 187.127,-167.848 205.564,-178.091"/>
<polygon fill="black" stroke="black" points="203.887,-181.163 214.328,-182.96 207.286,-175.044 203.887,-181.163"/>
<text text-anchor="middle" x="161.406" y="-136.799" font-family="Times New Roman,serif" font-size="8.00">gen</text>
</g>
<!-- http://example.org/Dispatcher@215be6bb_2&#45;&gt;http://example.org/Dispatcher@215be6bb_0 -->
<g id="edge7" class="edge"><title>http://example.org/Dispatcher@215be6bb_2&#45;&gt;http://example.org/Dispatcher@215be6bb_0</title>
<path fill="none" stroke="black" d="M96.5912,-146.741C58.6042,-177.132 -10.795,-242.703 27,-291 35.6963,-302.113 105.386,-318.01 162.913,-329.491"/>
<polygon fill="black" stroke="black" points="162.272,-332.932 172.761,-331.438 163.629,-326.065 162.272,-332.932"/>
<text text-anchor="middle" x="99.1128" y="-159.627" font-family="Times New Roman,serif" font-size="8.00">spe</text>
</g>
<!-- http://example.org/Dispatcher@215be6bb_2&#45;&gt;http://example.org/Dispatcher@215be6bb_1 -->
<g id="edge9" class="edge"><title>http://example.org/Dispatcher@215be6bb_2&#45;&gt;http://example.org/Dispatcher@215be6bb_1</title>
<path fill="none" stroke="black" d="M100.834,-146.776C91.7906,-156.387 81.787,-169.252 77,-183 71.7388,-198.11 70.3046,-204.468 77,-219 82.5174,-230.975 92.2229,-241.25 102.34,-249.478"/>
<polygon fill="black" stroke="black" points="100.384,-252.387 110.47,-255.631 104.609,-246.805 100.384,-252.387"/>
<text text-anchor="middle" x="105.328" y="-159.187" font-family="Times New Roman,serif" font-size="8.00">der</text>
</g>
<!-- &#45;attrs2 -->
<g id="node6" class="node"><title>&#45;attrs2</title>
<polygon fill="none" stroke="gray" points="170,-75 62,-75 62,-39 176,-39 176,-69 170,-75"/>
<polyline fill="none" stroke="gray" points="170,-75 170,-69 "/>
<polyline fill="none" stroke="gray" points="176,-69 170,-69 "/>
<text text-anchor="start" x="72" y="-61" font-family="Times New Roman,serif" font-size="10.00">type:</text>
<text text-anchor="start" x="96" y="-61" font-family="Times New Roman,serif" font-size="10.00">u2p:Dispatcher</text>
<text text-anchor="start" x="72" y="-48" font-family="Times New Roman,serif" font-size="10.00">state:</text>
<text text-anchor="start" x="96" y="-48" font-family="Times New Roman,serif" font-size="10.00">u2p:DoorsClosed</text>
</g>
<!-- &#45;attrs2&#45;&gt;http://example.org/Dispatcher@215be6bb_2 -->
<g id="edge3" class="edge"><title>&#45;attrs2&#45;&gt;http://example.org/Dispatcher@215be6bb_2</title>
<path fill="none" stroke="gray" stroke-dasharray="5,2" d="M119,-75.3034C119,-86.1537 119,-100.083 119,-110.896"/>
</g>
<!-- http://example.org/Dispatcher@215be6bb_1&#45;&gt;http://example.org/atFloor_1 -->
<g id="edge10" class="edge"><title>http://example.org/Dispatcher@215be6bb_1&#45;&gt;http://example.org/atFloor_1</title>
<path fill="none" stroke="black" d="M179.896,-249.201C192.216,-241.397 205.435,-232.669 216.758,-224.86"/>
<polygon fill="none" stroke="black" points="179.548,-249.418 176.578,-255.989 169.37,-255.774 172.34,-249.203 179.548,-249.418"/>
<polygon fill="black" stroke="black" points="218.775,-227.721 224.967,-219.124 214.765,-221.983 218.775,-227.721"/>
<text text-anchor="middle" x="168.85" y="-238.883" font-family="Times New Roman,serif" font-size="8.00">inv</text>
</g>
<!-- http://example.org/Dispatcher@215be6bb_1&#45;&gt;http://example.org/Dispatcher@215be6bb_0 -->
<g id="edge12" class="edge"><title>http://example.org/Dispatcher@215be6bb_1&#45;&gt;http://example.org/Dispatcher@215be6bb_0</title>
<path fill="none" stroke="black" d="M163.173,-290.589C176.666,-299.849 193.662,-311.513 208.327,-321.577"/>
<polygon fill="black" stroke="black" points="206.422,-324.515 216.647,-327.287 210.383,-318.743 206.422,-324.515"/>
<text text-anchor="middle" x="176.707" y="-282.222" font-family="Times New Roman,serif" font-size="8.00">spe</text>
</g>
<!-- &#45;attrs3 -->
<g id="node8" class="node"><title>&#45;attrs3</title>
<polygon fill="none" stroke="gray" points="185.5,-219 86.5,-219 86.5,-183 191.5,-183 191.5,-213 185.5,-219"/>
<polyline fill="none" stroke="gray" points="185.5,-219 185.5,-213 "/>
<polyline fill="none" stroke="gray" points="191.5,-213 185.5,-213 "/>
<text text-anchor="start" x="97" y="-205" font-family="Times New Roman,serif" font-size="10.00">type:</text>
<text text-anchor="start" x="121" y="-205" font-family="Times New Roman,serif" font-size="10.00">u2p:Dispatcher</text>
<text text-anchor="start" x="97" y="-192" font-family="Times New Roman,serif" font-size="10.00">state:</text>
<text text-anchor="start" x="121" y="-192" font-family="Times New Roman,serif" font-size="10.00">u2p:InitState</text>
</g>
<!-- &#45;attrs3&#45;&gt;http://example.org/Dispatcher@215be6bb_1 -->
<g id="edge4" class="edge"><title>&#45;attrs3&#45;&gt;http://example.org/Dispatcher@215be6bb_1</title>
<path fill="none" stroke="gray" stroke-dasharray="5,2" d="M139,-219.303C139,-230.154 139,-244.083 139,-254.896"/>
</g>
<!-- &#45;attrs4 -->
<g id="node10" class="node"><title>&#45;attrs4</title>
<polygon fill="none" stroke="gray" points="114,-363 16,-363 16,-327 120,-327 120,-357 114,-363"/>
<polyline fill="none" stroke="gray" points="114,-363 114,-357 "/>
<polyline fill="none" stroke="gray" points="120,-357 114,-357 "/>
<text text-anchor="start" x="26" y="-342" font-family="Times New Roman,serif" font-size="10.00">type:</text>
<text text-anchor="start" x="49" y="-342" font-family="Times New Roman,serif" font-size="10.00">u2p:Dispatcher</text>
</g>
<!-- &#45;attrs4&#45;&gt;http://example.org/Dispatcher@215be6bb -->
<g id="edge5" class="edge"><title>&#45;attrs4&#45;&gt;http://example.org/Dispatcher@215be6bb</title>
<path fill="none" stroke="gray" stroke-dasharray="5,2" d="M96.866,-363.124C117.199,-375.186 144.058,-391.119 162.958,-402.331"/>
</g>
</g>
</svg>
