<?xml version="1.0" encoding="UTF-8" standalone="no"?>
<!DOCTYPE svg PUBLIC "-//W3C//DTD SVG 1.1//EN"
 "http://www.w3.org/Graphics/SVG/1.1/DTD/svg11.dtd">
<!-- Generated by graphviz version 2.38.0 (20140413.2041)
 -->
<!-- Title: PROV Pages: 1 -->
<svg width="422pt" height="243pt"
 viewBox="0.00 0.00 422.00 243.00" xmlns="http://www.w3.org/2000/svg" xmlns:xlink="http://www.w3.org/1999/xlink">
<g id="graph0" class="graph" transform="scale(1 1) rotate(0) translate(4 239)">
<title>PROV</title>
<polygon fill="white" stroke="none" points="-4,4 -4,-239 418,-239 418,4 -4,4"/>
<g id="clust1" class="cluster"><title>clusterhttp://example.org/bundle1</title>
<g id="a_clust1"><a xlink:href="http://example.org/bundle1" xlink:title="bundle1">
<polygon fill="none" stroke="black" points="8,-8 8,-227 406,-227 406,-8 8,-8"/>
<text text-anchor="middle" x="207" y="-15.8" font-family="Times New Roman,serif" font-size="14.00">bundle1</text>
</a>
</g>
</g>
<!-- http://example.org/atFloor_1 -->
<g id="node1" class="node"><title>http://example.org/atFloor_1</title>
<g id="a_node1"><a xlink:href="http://example.org/atFloor_1" xlink:title="atFloor_1">
<polygon fill="#9fb1fc" stroke="#0000ff" points="289.5,-147 218.5,-147 218.5,-111 289.5,-111 289.5,-147"/>
<text text-anchor="middle" x="254" y="-125.3" font-family="Times New Roman,serif" font-size="14.00">atFloor_1</text>
</a>
</g>
</g>
<!-- http://example.org/dataset.caseStudy.CS5Elevator.Drive@ -->
<g id="node3" class="node"><title>http://example.org/dataset.caseStudy.CS5Elevator.Drive@</title>
<g id="a_node3"><a xlink:href="http://example.org/dataset.caseStudy.CS5Elevator.Drive@" xlink:title="dataset.caseStudy.CS5Elevator.Drive@">
<polygon fill="#fdb266" stroke="black" points="398.406,-206.562 207,-219 15.5943,-206.562 15.7729,-186.438 398.227,-186.438 398.406,-206.562"/>
<text text-anchor="middle" x="207" y="-197.3" font-family="Times New Roman,serif" font-size="14.00">dataset.caseStudy.CS5Elevator.Drive@</text>
</a>
</g>
</g>
<!-- http://example.org/atFloor_1&#45;&gt;http://example.org/dataset.caseStudy.CS5Elevator.Drive@ -->
<g id="edge3" class="edge"><title>http://example.org/atFloor_1&#45;&gt;http://example.org/dataset.caseStudy.CS5Elevator.Drive@</title>
<path fill="none" stroke="black" d="M242.382,-147.303C236.222,-156.479 228.583,-167.856 221.981,-177.688"/>
<polygon fill="black" stroke="black" points="218.951,-175.922 216.282,-186.175 224.762,-179.824 218.951,-175.922"/>
<text text-anchor="middle" x="248.986" y="-158.871" font-family="Times New Roman,serif" font-size="8.00">assoc</text>
</g>
<!-- &#45;attrs0 -->
<g id="node2" class="node"><title>&#45;attrs0</title>
<polygon fill="none" stroke="gray" points="292.5,-75 209.5,-75 209.5,-39 298.5,-39 298.5,-69 292.5,-75"/>
<polyline fill="none" stroke="gray" points="292.5,-75 292.5,-69 "/>
<polyline fill="none" stroke="gray" points="298.5,-69 292.5,-69 "/>
<text text-anchor="start" x="220" y="-54" font-family="Times New Roman,serif" font-size="10.00">type:</text>
<text text-anchor="start" x="243" y="-54" font-family="Times New Roman,serif" font-size="10.00">u2p:atFloor</text>
</g>
<!-- &#45;attrs0&#45;&gt;http://example.org/atFloor_1 -->
<g id="edge1" class="edge"><title>&#45;attrs0&#45;&gt;http://example.org/atFloor_1</title>
<path fill="none" stroke="gray" stroke-dasharray="5,2" d="M254,-75.3034C254,-86.1537 254,-100.083 254,-110.896"/>
</g>
<!-- &#45;attrs1 -->
<g id="node4" class="node"><title>&#45;attrs1</title>
<polygon fill="none" stroke="gray" points="194.5,-147 117.5,-147 117.5,-111 200.5,-111 200.5,-141 194.5,-147"/>
<polyline fill="none" stroke="gray" points="194.5,-147 194.5,-141 "/>
<polyline fill="none" stroke="gray" points="200.5,-141 194.5,-141 "/>
<text text-anchor="start" x="128" y="-126" font-family="Times New Roman,serif" font-size="10.00">type:</text>
<text text-anchor="start" x="151" y="-126" font-family="Times New Roman,serif" font-size="10.00">u2p:Drive</text>
</g>
<!-- &#45;attrs1&#45;&gt;http://example.org/dataset.caseStudy.CS5Elevator.Drive@ -->
<g id="edge2" class="edge"><title>&#45;attrs1&#45;&gt;http://example.org/dataset.caseStudy.CS5Elevator.Drive@</title>
<path fill="none" stroke="gray" stroke-dasharray="5,2" d="M170.865,-147.303C179.083,-159.287 189.876,-175.028 197.52,-186.175"/>
</g>
</g>
</svg>
