<?xml version="1.0" encoding="UTF-8" standalone="no"?>
<!DOCTYPE svg PUBLIC "-//W3C//DTD SVG 1.1//EN"
 "http://www.w3.org/Graphics/SVG/1.1/DTD/svg11.dtd">
<!-- Generated by graphviz version 2.38.0 (20140413.2041)
 -->
<!-- Title: PROV Pages: 1 -->
<svg width="490pt" height="243pt"
 viewBox="0.00 0.00 490.00 243.00" xmlns="http://www.w3.org/2000/svg" xmlns:xlink="http://www.w3.org/1999/xlink">
<g id="graph0" class="graph" transform="scale(1 1) rotate(0) translate(4 239)">
<title>PROV</title>
<polygon fill="white" stroke="none" points="-4,4 -4,-239 486,-239 486,4 -4,4"/>
<g id="clust1" class="cluster"><title>clusterhttp://example.org/bundle1</title>
<g id="a_clust1"><a xlink:href="http://example.org/bundle1" xlink:title="bundle1">
<polygon fill="none" stroke="black" points="8,-8 8,-227 474,-227 474,-8 8,-8"/>
<text text-anchor="middle" x="241" y="-15.8" font-family="Times New Roman,serif" font-size="14.00">bundle1</text>
</a>
</g>
</g>
<!-- http://example.org/close_1 -->
<g id="node1" class="node"><title>http://example.org/close_1</title>
<g id="a_node1"><a xlink:href="http://example.org/close_1" xlink:title="close_1">
<polygon fill="#9fb1fc" stroke="#0000ff" points="323,-147 263,-147 263,-111 323,-111 323,-147"/>
<text text-anchor="middle" x="293" y="-125.3" font-family="Times New Roman,serif" font-size="14.00">close_1</text>
</a>
</g>
</g>
<!-- http://example.org/dataset.caseStudy.CS5Elevator.DoorControl@ -->
<g id="node4" class="node"><title>http://example.org/dataset.caseStudy.CS5Elevator.DoorControl@</title>
<g id="a_node4"><a xlink:href="http://example.org/dataset.caseStudy.CS5Elevator.DoorControl@" xlink:title="dataset.caseStudy.CS5Elevator.DoorControl@">
<polygon fill="#fdb266" stroke="black" points="465.889,-206.562 241,-219 16.1112,-206.562 16.3211,-186.438 465.679,-186.438 465.889,-206.562"/>
<text text-anchor="middle" x="241" y="-197.3" font-family="Times New Roman,serif" font-size="14.00">dataset.caseStudy.CS5Elevator.DoorControl@</text>
</a>
</g>
</g>
<!-- http://example.org/close_1&#45;&gt;http://example.org/dataset.caseStudy.CS5Elevator.DoorControl@ -->
<g id="edge3" class="edge"><title>http://example.org/close_1&#45;&gt;http://example.org/dataset.caseStudy.CS5Elevator.DoorControl@</title>
<path fill="none" stroke="black" d="M280.146,-147.303C273.261,-156.572 264.706,-168.088 257.352,-177.988"/>
<polygon fill="black" stroke="black" points="254.423,-176.061 251.27,-186.175 260.043,-180.235 254.423,-176.061"/>
<text text-anchor="middle" x="286.102" y="-159.17" font-family="Times New Roman,serif" font-size="8.00">assoc</text>
</g>
<!-- &#45;attrs0 -->
<g id="node2" class="node"><title>&#45;attrs0</title>
<polygon fill="none" stroke="gray" points="376,-75 300,-75 300,-39 382,-39 382,-69 376,-75"/>
<polyline fill="none" stroke="gray" points="376,-75 376,-69 "/>
<polyline fill="none" stroke="gray" points="382,-69 376,-69 "/>
<text text-anchor="start" x="310" y="-54" font-family="Times New Roman,serif" font-size="10.00">type:</text>
<text text-anchor="start" x="333" y="-54" font-family="Times New Roman,serif" font-size="10.00">u2p:close</text>
</g>
<!-- &#45;attrs0&#45;&gt;http://example.org/close_1 -->
<g id="edge1" class="edge"><title>&#45;attrs0&#45;&gt;http://example.org/close_1</title>
<path fill="none" stroke="gray" stroke-dasharray="5,2" d="M329.135,-75.3034C321.695,-86.1537 312.143,-100.083 304.729,-110.896"/>
</g>
<!-- http://openprovenance.org/var#output0 -->
<g id="node3" class="node"><title>http://openprovenance.org/var#output0</title>
<g id="a_node3"><a xlink:href="http://openprovenance.org/var#output0" xlink:title="output0">
<ellipse fill="#fffc87" stroke="#808080" cx="244" cy="-57" rx="38.1938" ry="18"/>
<text text-anchor="middle" x="244" y="-53.3" font-family="Times New Roman,serif" font-size="14.00">output0</text>
</a>
</g>
</g>
<!-- http://openprovenance.org/var#output0&#45;&gt;http://example.org/close_1 -->
<g id="edge4" class="edge"><title>http://openprovenance.org/var#output0&#45;&gt;http://example.org/close_1</title>
<path fill="none" stroke="black" d="M255.365,-74.2354C261.252,-82.6462 268.577,-93.1096 275.195,-102.564"/>
<polygon fill="black" stroke="black" points="272.411,-104.691 281.013,-110.876 278.146,-100.677 272.411,-104.691"/>
<text text-anchor="middle" x="270.308" y="-71.0301" font-family="Times New Roman,serif" font-size="8.00">gen</text>
</g>
<!-- &#45;attrs1 -->
<g id="node5" class="node"><title>&#45;attrs1</title>
<polygon fill="none" stroke="gray" points="238.5,-147 133.5,-147 133.5,-111 244.5,-111 244.5,-141 238.5,-147"/>
<polyline fill="none" stroke="gray" points="238.5,-147 238.5,-141 "/>
<polyline fill="none" stroke="gray" points="244.5,-141 238.5,-141 "/>
<text text-anchor="start" x="144" y="-126" font-family="Times New Roman,serif" font-size="10.00">type:</text>
<text text-anchor="start" x="167" y="-126" font-family="Times New Roman,serif" font-size="10.00">u2p:DoorControl</text>
</g>
<!-- &#45;attrs1&#45;&gt;http://example.org/dataset.caseStudy.CS5Elevator.DoorControl@ -->
<g id="edge2" class="edge"><title>&#45;attrs1&#45;&gt;http://example.org/dataset.caseStudy.CS5Elevator.DoorControl@</title>
<path fill="none" stroke="gray" stroke-dasharray="5,2" d="M201.854,-147.303C210.756,-159.287 222.449,-175.028 230.73,-186.175"/>
</g>
</g>
</svg>
