<?xml version="1.0" encoding="UTF-8" standalone="no"?>
<!DOCTYPE svg PUBLIC "-//W3C//DTD SVG 1.1//EN"
 "http://www.w3.org/Graphics/SVG/1.1/DTD/svg11.dtd">
<!-- Generated by graphviz version 2.38.0 (20140413.2041)
 -->
<!-- Title: PROV Pages: 1 -->
<svg width="356pt" height="459pt"
 viewBox="0.00 0.00 356.00 459.00" xmlns="http://www.w3.org/2000/svg" xmlns:xlink="http://www.w3.org/1999/xlink">
<g id="graph0" class="graph" transform="scale(1 1) rotate(0) translate(4 455)">
<title>PROV</title>
<polygon fill="white" stroke="none" points="-4,4 -4,-455 352,-455 352,4 -4,4"/>
<g id="clust1" class="cluster"><title>clusterhttp://example.org/bundle1</title>
<g id="a_clust1"><a xlink:href="http://example.org/bundle1" xlink:title="bundle1">
<polygon fill="none" stroke="black" points="8,-8 8,-443 340,-443 340,-8 8,-8"/>
<text text-anchor="middle" x="174" y="-15.8" font-family="Times New Roman,serif" font-size="14.00">bundle1</text>
</a>
</g>
</g>
<!-- http://example.org/open_1 -->
<g id="node1" class="node"><title>http://example.org/open_1</title>
<g id="a_node1"><a xlink:href="http://example.org/open_1" xlink:title="open_1">
<polygon fill="#9fb1fc" stroke="#0000ff" points="239.5,-219 180.5,-219 180.5,-183 239.5,-183 239.5,-219"/>
<text text-anchor="middle" x="210" y="-197.3" font-family="Times New Roman,serif" font-size="14.00">open_1</text>
</a>
</g>
</g>
<!-- http://example.org/Door@4439f31e_1 -->
<g id="node7" class="node"><title>http://example.org/Door@4439f31e_1</title>
<g id="a_node7"><a xlink:href="http://example.org/Door@4439f31e_1" xlink:title="Door@4439f31e_1">
<ellipse fill="#fffc87" stroke="#808080" cx="117" cy="-273" rx="80.6858" ry="18"/>
<text text-anchor="middle" x="117" y="-269.3" font-family="Times New Roman,serif" font-size="14.00">Door@4439f31e_1</text>
</a>
</g>
</g>
<!-- http://example.org/open_1&#45;&gt;http://example.org/Door@4439f31e_1 -->
<g id="edge11" class="edge"><title>http://example.org/open_1&#45;&gt;http://example.org/Door@4439f31e_1</title>
<path fill="none" stroke="black" d="M181.353,-219.124C168.533,-228.069 153.654,-239.143 141.372,-248.843"/>
<polygon fill="black" stroke="black" points="138.945,-246.303 133.342,-255.294 143.33,-251.759 138.945,-246.303"/>
<text text-anchor="middle" x="182.688" y="-232.164" font-family="Times New Roman,serif" font-size="8.00">use</text>
</g>
<!-- &#45;attrs0 -->
<g id="node2" class="node"><title>&#45;attrs0</title>
<polygon fill="none" stroke="gray" points="270.5,-147 195.5,-147 195.5,-111 276.5,-111 276.5,-141 270.5,-147"/>
<polyline fill="none" stroke="gray" points="270.5,-147 270.5,-141 "/>
<polyline fill="none" stroke="gray" points="276.5,-141 270.5,-141 "/>
<text text-anchor="start" x="206" y="-126" font-family="Times New Roman,serif" font-size="10.00">type:</text>
<text text-anchor="start" x="229" y="-126" font-family="Times New Roman,serif" font-size="10.00">u2p:open</text>
</g>
<!-- &#45;attrs0&#45;&gt;http://example.org/open_1 -->
<g id="edge1" class="edge"><title>&#45;attrs0&#45;&gt;http://example.org/open_1</title>
<path fill="none" stroke="gray" stroke-dasharray="5,2" d="M229.573,-147.303C225.543,-158.154 220.369,-172.083 216.353,-182.896"/>
</g>
<!-- http://example.org/Door@4439f31e_0 -->
<g id="node3" class="node"><title>http://example.org/Door@4439f31e_0</title>
<g id="a_node3"><a xlink:href="http://example.org/Door@4439f31e_0" xlink:title="Door@4439f31e_0">
<ellipse fill="#fffc87" stroke="#808080" cx="196" cy="-345" rx="80.6858" ry="18"/>
<text text-anchor="middle" x="196" y="-341.3" font-family="Times New Roman,serif" font-size="14.00">Door@4439f31e_0</text>
</a>
</g>
</g>
<!-- http://example.org/Door@4439f31e -->
<g id="node9" class="node"><title>http://example.org/Door@4439f31e</title>
<g id="a_node9"><a xlink:href="http://example.org/Door@4439f31e" xlink:title="Door@4439f31e">
<polygon fill="#fdb266" stroke="black" points="238.242,-422.562 150,-435 61.7578,-422.562 61.8401,-402.438 238.16,-402.438 238.242,-422.562"/>
<text text-anchor="middle" x="150" y="-413.3" font-family="Times New Roman,serif" font-size="14.00">Door@4439f31e</text>
</a>
</g>
</g>
<!-- http://example.org/Door@4439f31e_0&#45;&gt;http://example.org/Door@4439f31e -->
<g id="edge6" class="edge"><title>http://example.org/Door@4439f31e_0&#45;&gt;http://example.org/Door@4439f31e</title>
<path fill="none" stroke="black" d="M184.865,-362.945C178.839,-372.115 171.317,-383.561 164.804,-393.473"/>
<polygon fill="black" stroke="black" points="161.744,-391.755 159.178,-402.034 167.594,-395.599 161.744,-391.755"/>
<text text-anchor="middle" x="191.602" y="-374.447" font-family="Times New Roman,serif" font-size="8.00">att</text>
</g>
<!-- &#45;attrs1 -->
<g id="node4" class="node"><title>&#45;attrs1</title>
<polygon fill="none" stroke="gray" points="326,-291 216,-291 216,-255 332,-255 332,-285 326,-291"/>
<polyline fill="none" stroke="gray" points="326,-291 326,-285 "/>
<polyline fill="none" stroke="gray" points="332,-285 326,-285 "/>
<text text-anchor="start" x="226" y="-270" font-family="Times New Roman,serif" font-size="10.00">type:</text>
<text text-anchor="start" x="249" y="-270" font-family="Times New Roman,serif" font-size="10.00">u2p:StateMachine</text>
</g>
<!-- &#45;attrs1&#45;&gt;http://example.org/Door@4439f31e_0 -->
<g id="edge2" class="edge"><title>&#45;attrs1&#45;&gt;http://example.org/Door@4439f31e_0</title>
<path fill="none" stroke="gray" stroke-dasharray="5,2" d="M254.719,-291.303C242.448,-302.316 226.643,-316.5 214.522,-327.378"/>
</g>
<!-- http://example.org/Door@4439f31e_2 -->
<g id="node5" class="node"><title>http://example.org/Door@4439f31e_2</title>
<g id="a_node5"><a xlink:href="http://example.org/Door@4439f31e_2" xlink:title="Door@4439f31e_2">
<ellipse fill="#fffc87" stroke="#808080" cx="97" cy="-129" rx="80.6858" ry="18"/>
<text text-anchor="middle" x="97" y="-125.3" font-family="Times New Roman,serif" font-size="14.00">Door@4439f31e_2</text>
</a>
</g>
</g>
<!-- http://example.org/Door@4439f31e_2&#45;&gt;http://example.org/open_1 -->
<g id="edge8" class="edge"><title>http://example.org/Door@4439f31e_2&#45;&gt;http://example.org/open_1</title>
<path fill="none" stroke="black" d="M122.924,-146.059C137.878,-155.323 156.922,-167.12 173.384,-177.317"/>
<polygon fill="black" stroke="black" points="171.877,-180.501 182.221,-182.792 175.564,-174.55 171.877,-180.501"/>
<text text-anchor="middle" x="136.141" y="-137.066" font-family="Times New Roman,serif" font-size="8.00">gen</text>
</g>
<!-- http://example.org/Door@4439f31e_2&#45;&gt;http://example.org/Door@4439f31e_0 -->
<g id="edge7" class="edge"><title>http://example.org/Door@4439f31e_2&#45;&gt;http://example.org/Door@4439f31e_0</title>
<path fill="none" stroke="black" d="M79.0887,-146.793C48.4671,-177.552 -7.45912,-244.079 27,-291 39.1908,-307.599 84.8964,-321.339 125.705,-330.666"/>
<polygon fill="black" stroke="black" points="125.157,-334.13 135.678,-332.882 126.675,-327.296 125.157,-334.13"/>
<text text-anchor="middle" x="83.2699" y="-159.298" font-family="Times New Roman,serif" font-size="8.00">spe</text>
</g>
<!-- http://example.org/Door@4439f31e_2&#45;&gt;http://example.org/Door@4439f31e_1 -->
<g id="edge9" class="edge"><title>http://example.org/Door@4439f31e_2&#45;&gt;http://example.org/Door@4439f31e_1</title>
<path fill="none" stroke="black" d="M82.6679,-146.86C69.2031,-164.856 52.5662,-194.14 63,-219 67.8453,-230.545 76.568,-240.84 85.6093,-249.215"/>
<polygon fill="black" stroke="black" points="83.3486,-251.887 93.2008,-255.784 87.9292,-246.594 83.3486,-251.887"/>
<text text-anchor="middle" x="88.8518" y="-158.626" font-family="Times New Roman,serif" font-size="8.00">der</text>
</g>
<!-- &#45;attrs2 -->
<g id="node6" class="node"><title>&#45;attrs2</title>
<polygon fill="none" stroke="gray" points="137.5,-75 50.5,-75 50.5,-39 143.5,-39 143.5,-69 137.5,-75"/>
<polyline fill="none" stroke="gray" points="137.5,-75 137.5,-69 "/>
<polyline fill="none" stroke="gray" points="143.5,-69 137.5,-69 "/>
<text text-anchor="start" x="61" y="-61" font-family="Times New Roman,serif" font-size="10.00">type:</text>
<text text-anchor="start" x="85" y="-61" font-family="Times New Roman,serif" font-size="10.00">u2p:Door</text>
<text text-anchor="start" x="61" y="-48" font-family="Times New Roman,serif" font-size="10.00">state:</text>
<text text-anchor="start" x="85" y="-48" font-family="Times New Roman,serif" font-size="10.00">u2p:Opened</text>
</g>
<!-- &#45;attrs2&#45;&gt;http://example.org/Door@4439f31e_2 -->
<g id="edge3" class="edge"><title>&#45;attrs2&#45;&gt;http://example.org/Door@4439f31e_2</title>
<path fill="none" stroke="gray" stroke-dasharray="5,2" d="M97,-75.3034C97,-86.1537 97,-100.083 97,-110.896"/>
</g>
<!-- http://example.org/Door@4439f31e_1&#45;&gt;http://example.org/open_1 -->
<g id="edge10" class="edge"><title>http://example.org/Door@4439f31e_1&#45;&gt;http://example.org/open_1</title>
<path fill="none" stroke="black" d="M154.299,-248.743C164.64,-241.305 175.592,-233.066 185.062,-225.604"/>
<polygon fill="none" stroke="black" points="154.038,-248.927 151.448,-255.658 144.24,-255.855 146.83,-249.125 154.038,-248.927"/>
<polygon fill="black" stroke="black" points="187.311,-228.287 192.927,-219.303 182.934,-222.824 187.311,-228.287"/>
<text text-anchor="middle" x="142.864" y="-239.019" font-family="Times New Roman,serif" font-size="8.00">inv</text>
</g>
<!-- http://example.org/Door@4439f31e_1&#45;&gt;http://example.org/Door@4439f31e_0 -->
<g id="edge12" class="edge"><title>http://example.org/Door@4439f31e_1&#45;&gt;http://example.org/Door@4439f31e_0</title>
<path fill="none" stroke="black" d="M135.722,-290.589C145.782,-299.503 158.356,-310.645 169.413,-320.442"/>
<polygon fill="black" stroke="black" points="167.333,-323.275 177.139,-327.287 171.975,-318.036 167.333,-323.275"/>
<text text-anchor="middle" x="149.95" y="-283.94" font-family="Times New Roman,serif" font-size="8.00">spe</text>
</g>
<!-- &#45;attrs3 -->
<g id="node8" class="node"><title>&#45;attrs3</title>
<polygon fill="none" stroke="gray" points="156,-219 72,-219 72,-183 162,-183 162,-213 156,-219"/>
<polyline fill="none" stroke="gray" points="156,-219 156,-213 "/>
<polyline fill="none" stroke="gray" points="162,-213 156,-213 "/>
<text text-anchor="start" x="82" y="-205" font-family="Times New Roman,serif" font-size="10.00">type:</text>
<text text-anchor="start" x="106" y="-205" font-family="Times New Roman,serif" font-size="10.00">u2p:Door</text>
<text text-anchor="start" x="82" y="-192" font-family="Times New Roman,serif" font-size="10.00">state:</text>
<text text-anchor="start" x="106" y="-192" font-family="Times New Roman,serif" font-size="10.00">u2p:Closed</text>
</g>
<!-- &#45;attrs3&#45;&gt;http://example.org/Door@4439f31e_1 -->
<g id="edge4" class="edge"><title>&#45;attrs3&#45;&gt;http://example.org/Door@4439f31e_1</title>
<path fill="none" stroke="gray" stroke-dasharray="5,2" d="M117,-219.303C117,-230.154 117,-244.083 117,-254.896"/>
</g>
<!-- &#45;attrs4 -->
<g id="node10" class="node"><title>&#45;attrs4</title>
<polygon fill="none" stroke="gray" points="91.5,-363 16.5,-363 16.5,-327 97.5,-327 97.5,-357 91.5,-363"/>
<polyline fill="none" stroke="gray" points="91.5,-363 91.5,-357 "/>
<polyline fill="none" stroke="gray" points="97.5,-357 91.5,-357 "/>
<text text-anchor="start" x="27" y="-342" font-family="Times New Roman,serif" font-size="10.00">type:</text>
<text text-anchor="start" x="50" y="-342" font-family="Times New Roman,serif" font-size="10.00">u2p:Door</text>
</g>
<!-- &#45;attrs4&#45;&gt;http://example.org/Door@4439f31e -->
<g id="edge5" class="edge"><title>&#45;attrs4&#45;&gt;http://example.org/Door@4439f31e</title>
<path fill="none" stroke="gray" stroke-dasharray="5,2" d="M79.9888,-363.303C96.0179,-375.368 117.105,-391.24 131.933,-402.401"/>
</g>
</g>
</svg>
