<?xml version="1.0" encoding="UTF-8" standalone="no"?>
<!DOCTYPE svg PUBLIC "-//W3C//DTD SVG 1.1//EN"
 "http://www.w3.org/Graphics/SVG/1.1/DTD/svg11.dtd">
<!-- Generated by graphviz version 2.38.0 (20140413.2041)
 -->
<!-- Title: PROV Pages: 1 -->
<svg width="490pt" height="243pt"
 viewBox="0.00 0.00 490.00 243.00" xmlns="http://www.w3.org/2000/svg" xmlns:xlink="http://www.w3.org/1999/xlink">
<g id="graph0" class="graph" transform="scale(1 1) rotate(0) translate(4 239)">
<title>PROV</title>
<polygon fill="white" stroke="none" points="-4,4 -4,-239 486,-239 486,4 -4,4"/>
<g id="clust1" class="cluster"><title>clusterhttp://example.org/bundle1</title>
<g id="a_clust1"><a xlink:href="http://example.org/bundle1" xlink:title="bundle1">
<polygon fill="none" stroke="black" points="8,-8 8,-227 474,-227 474,-8 8,-8"/>
<text text-anchor="middle" x="241" y="-15.8" font-family="Times New Roman,serif" font-size="14.00">bundle1</text>
</a>
</g>
</g>
<!-- http://example.org/open_1 -->
<g id="node1" class="node"><title>http://example.org/open_1</title>
<g id="a_node1"><a xlink:href="http://example.org/open_1" xlink:title="open_1">
<polygon fill="#9fb1fc" stroke="#0000ff" points="321.5,-147 262.5,-147 262.5,-111 321.5,-111 321.5,-147"/>
<text text-anchor="middle" x="292" y="-125.3" font-family="Times New Roman,serif" font-size="14.00">open_1</text>
</a>
</g>
</g>
<!-- http://example.org/dataset.caseStudy.CS5Elevator.DoorControl@ -->
<g id="node4" class="node"><title>http://example.org/dataset.caseStudy.CS5Elevator.DoorControl@</title>
<g id="a_node4"><a xlink:href="http://example.org/dataset.caseStudy.CS5Elevator.DoorControl@" xlink:title="dataset.caseStudy.CS5Elevator.DoorControl@">
<polygon fill="#fdb266" stroke="black" points="465.889,-206.562 241,-219 16.1112,-206.562 16.3211,-186.438 465.679,-186.438 465.889,-206.562"/>
<text text-anchor="middle" x="241" y="-197.3" font-family="Times New Roman,serif" font-size="14.00">dataset.caseStudy.CS5Elevator.DoorControl@</text>
</a>
</g>
</g>
<!-- http://example.org/open_1&#45;&gt;http://example.org/dataset.caseStudy.CS5Elevator.DoorControl@ -->
<g id="edge3" class="edge"><title>http://example.org/open_1&#45;&gt;http://example.org/dataset.caseStudy.CS5Elevator.DoorControl@</title>
<path fill="none" stroke="black" d="M279.393,-147.303C272.64,-156.572 264.25,-168.088 257.037,-177.988"/>
<polygon fill="black" stroke="black" points="254.132,-176.032 251.072,-186.175 259.79,-180.154 254.132,-176.032"/>
<text text-anchor="middle" x="285.476" y="-159.115" font-family="Times New Roman,serif" font-size="8.00">assoc</text>
</g>
<!-- &#45;attrs0 -->
<g id="node2" class="node"><title>&#45;attrs0</title>
<polygon fill="none" stroke="gray" points="374.5,-75 299.5,-75 299.5,-39 380.5,-39 380.5,-69 374.5,-75"/>
<polyline fill="none" stroke="gray" points="374.5,-75 374.5,-69 "/>
<polyline fill="none" stroke="gray" points="380.5,-69 374.5,-69 "/>
<text text-anchor="start" x="310" y="-54" font-family="Times New Roman,serif" font-size="10.00">type:</text>
<text text-anchor="start" x="333" y="-54" font-family="Times New Roman,serif" font-size="10.00">u2p:open</text>
</g>
<!-- &#45;attrs0&#45;&gt;http://example.org/open_1 -->
<g id="edge1" class="edge"><title>&#45;attrs0&#45;&gt;http://example.org/open_1</title>
<path fill="none" stroke="gray" stroke-dasharray="5,2" d="M328.135,-75.3034C320.695,-86.1537 311.143,-100.083 303.729,-110.896"/>
</g>
<!-- http://openprovenance.org/var#output0 -->
<g id="node3" class="node"><title>http://openprovenance.org/var#output0</title>
<g id="a_node3"><a xlink:href="http://openprovenance.org/var#output0" xlink:title="output0">
<ellipse fill="#fffc87" stroke="#808080" cx="243" cy="-57" rx="38.1938" ry="18"/>
<text text-anchor="middle" x="243" y="-53.3" font-family="Times New Roman,serif" font-size="14.00">output0</text>
</a>
</g>
</g>
<!-- http://openprovenance.org/var#output0&#45;&gt;http://example.org/open_1 -->
<g id="edge4" class="edge"><title>http://openprovenance.org/var#output0&#45;&gt;http://example.org/open_1</title>
<path fill="none" stroke="black" d="M254.365,-74.2354C260.252,-82.6462 267.577,-93.1096 274.195,-102.564"/>
<polygon fill="black" stroke="black" points="271.411,-104.691 280.013,-110.876 277.146,-100.677 271.411,-104.691"/>
<text text-anchor="middle" x="269.308" y="-71.0301" font-family="Times New Roman,serif" font-size="8.00">gen</text>
</g>
<!-- &#45;attrs1 -->
<g id="node5" class="node"><title>&#45;attrs1</title>
<polygon fill="none" stroke="gray" points="238.5,-147 133.5,-147 133.5,-111 244.5,-111 244.5,-141 238.5,-147"/>
<polyline fill="none" stroke="gray" points="238.5,-147 238.5,-141 "/>
<polyline fill="none" stroke="gray" points="244.5,-141 238.5,-141 "/>
<text text-anchor="start" x="144" y="-126" font-family="Times New Roman,serif" font-size="10.00">type:</text>
<text text-anchor="start" x="167" y="-126" font-family="Times New Roman,serif" font-size="10.00">u2p:DoorControl</text>
</g>
<!-- &#45;attrs1&#45;&gt;http://example.org/dataset.caseStudy.CS5Elevator.DoorControl@ -->
<g id="edge2" class="edge"><title>&#45;attrs1&#45;&gt;http://example.org/dataset.caseStudy.CS5Elevator.DoorControl@</title>
<path fill="none" stroke="gray" stroke-dasharray="5,2" d="M201.854,-147.303C210.756,-159.287 222.449,-175.028 230.73,-186.175"/>
</g>
</g>
</svg>
